<svg width="26" height="26" viewBox="0 0 26 26" fill="none" xmlns="http://www.w3.org/2000/svg">
<path d="M19.3748 11.772C19.8095 11.4114 22.3196 9.84913 23.6941 8.5331C24.7671 7.5047 25.1822 4.81945 23.5316 3.51327C21.3857 1.81701 19.3259 3.59798 19.3259 3.59798C19.3259 3.59798 19.1457 2.59126 17.8926 2.00023C16.3145 1.25552 14.3154 0.97774 12.4768 1.00138C10.6951 1.02305 9.0543 1.23976 7.59757 1.95885C6.29355 2.60308 6.21523 3.52115 6.21523 3.52115C6.21523 3.52115 4.50396 1.87611 2.40696 3.21184C0.311927 4.54954 0.913026 7.22889 1.92139 8.35382C3.23519 9.81958 4.81332 10.5663 5.52994 11.1061C6.2446 11.6459 6.9299 12.1601 6.9299 12.623C6.9299 13.086 6.72627 13.1885 6.64795 13.1629C6.57159 13.1372 6.43648 12.6861 6.08601 12.8792C5.60826 13.1451 5.75315 14.2169 6.74976 14.3193C7.71504 14.4198 7.8991 13.3934 7.8991 13.3934L8.05182 12.3906L9.63582 13.4958L11.3726 14.9359L11.3216 16.1692C11.3216 16.1692 11.2453 17.1208 10.7852 17.9443C10.325 18.7678 9.58492 19.5893 9.58492 19.5893L9.56142 20.334L16.0012 20.1804L15.7976 19.4613C15.7976 19.4613 14.9674 18.5432 14.4681 17.5582C14.1118 16.8529 14.055 16.1417 14.055 16.1417L14.0393 14.3725L17.3816 12.3118C17.3816 12.3118 17.7399 12.5955 17.689 12.6979C17.6381 12.8004 17.6263 13.8504 18.4291 14.2405C19.2221 14.6266 19.8604 14.1381 19.784 13.4682C19.7077 12.8004 19.2984 13.0309 19.1712 13.1333C19.0439 13.2357 18.762 13.2614 18.6856 12.8752C18.6073 12.493 18.9401 12.1325 19.3748 11.772ZM2.92191 8.13514L2.15634 5.79071L3.08247 4.57121L4.1202 4.26585C4.1202 4.26585 5.44575 5.26075 5.49274 5.34153C5.53973 5.4223 6.33859 7.07522 6.33859 7.07522L7.39198 10.913L2.92191 8.13514ZM17.9709 11.2184C17.9866 11.1376 18.9597 7.10674 18.9597 7.10674C18.9597 7.05946 19.645 6.73833 19.645 6.67332C19.645 6.60831 20.8903 4.56925 20.8903 4.56925L22.9657 4.65002L23.3965 6.7206L22.3588 8.43853C22.3607 8.44051 17.9553 11.2972 17.9709 11.2184Z" fill="#FEC417"/>
<path d="M23.8391 6.11589C23.6864 4.27975 21.8811 3.84041 21.139 4.10638C20.397 4.37234 19.9153 4.87078 19.7508 5.58002C19.6177 6.15332 19.4845 6.53552 19.3318 6.59462C19.1634 6.65767 19.0088 6.63205 19.0088 6.63205C19.0088 6.63205 18.9813 5.39089 18.9892 4.89048C19.0088 3.85814 19.322 3.59415 19.322 3.59415C19.322 3.59415 19.2555 3.24544 19.1223 3.05237C18.9892 2.86127 18.7425 2.61304 18.7425 2.61304C18.7425 2.61304 18.7993 3.1095 18.5525 3.22574C18.3058 3.34198 18.0396 3.16861 18.0396 3.16861L18.2863 4.20094C18.2863 4.20094 17.8868 9.34686 17.8496 9.46113C17.8124 9.57539 16.3107 12.1956 16.3107 12.1956C16.3107 12.1956 15.4354 13.0191 15.0184 13.2102C14.5994 13.4013 14.2391 13.8998 12.6238 13.9175C11.0085 13.9372 9.62025 12.6547 9.62025 12.6547L8.23204 11.315L7.20606 8.27315L7.05333 5.17418L7.11795 4.04727L7.16298 3.57642L7.09054 3.33804C7.09054 3.33804 6.95739 3.472 6.71069 3.41487C6.46398 3.35774 6.36804 3.03267 6.36804 3.03267C6.36804 3.03267 6.2721 3.18634 6.25448 3.26317C6.2349 3.34001 6.21532 3.51732 6.21532 3.51732C6.21532 3.51732 6.4816 3.79904 6.53839 4.20094C6.59517 4.60285 6.51881 6.26759 6.2349 6.22818C5.94903 6.19075 6.04302 4.79395 4.96026 4.25808C4.02238 3.79313 2.62243 3.93301 2.0507 5.09931C1.48093 6.26562 1.89798 7.64272 3.68561 8.92526C5.47325 10.2078 7.3764 11.2854 7.67793 12.3138C8.0382 13.5373 7.22172 14.2642 7.22172 14.2642C7.22172 14.2642 7.81499 14.1815 8.10673 13.5412C8.20071 13.3344 8.23595 13.0329 8.24966 12.8537C8.92516 13.7402 9.82388 14.4908 11.0143 14.8533C11.4647 15.0089 11.9718 15.0878 12.6767 15.0878C12.7785 15.0878 12.8783 15.0838 12.9782 15.0799C13.8025 15.0503 14.5074 14.8947 15.1907 14.5539C16.1129 14.1244 16.8276 13.4683 17.3797 12.7236C17.3641 12.9009 17.4717 13.3422 17.6773 13.6909C18.0376 14.3037 18.6465 14.3411 18.6465 14.3411C18.6465 14.3411 17.8105 13.8446 17.9808 12.6586C18.1512 11.4726 18.9304 11.051 20.1091 10.2866C21.2918 9.52023 23.9899 7.95203 23.8391 6.11589ZM4.52363 8.7184C3.99301 8.34211 3.06297 7.83973 2.67921 7.07336C2.16818 6.05087 2.58327 4.81562 3.55443 4.66392C5.57114 4.34476 5.60835 6.86453 5.74149 7.16989C5.87463 7.47526 6.25448 7.49496 6.25448 7.49496C6.25448 7.49496 6.26819 7.66439 6.32301 7.99143C6.32497 8.00128 6.32692 8.00916 6.32692 8.01901L6.3328 8.04856C6.37 8.27118 6.42287 8.54897 6.49727 8.86616L6.50314 8.8898C6.54426 9.06908 6.58734 9.23851 6.63237 9.39415C6.72244 9.72118 6.83208 10.0738 6.96718 10.4363C6.77139 10.3024 5.64946 9.52023 4.52363 8.7184ZM22.7935 7.30189C22.3726 7.98749 21.5208 8.49775 20.8923 8.92723C20.0817 9.48083 18.8756 10.3122 18.5349 10.5447C18.6132 10.3359 18.6818 10.129 18.7444 9.92607C18.8462 9.65814 18.9539 9.3311 19.0283 8.97845C19.2241 8.0525 19.2574 7.24279 19.2574 7.24279C19.2574 7.24279 19.6568 7.35705 19.9036 7.08912C20.1503 6.82119 20.2423 5.9898 20.4733 5.59775C20.8336 4.98505 21.5561 4.35461 22.6408 5.11901C23.2674 5.56229 23.2909 6.49021 22.7935 7.30189ZM12.2087 15.7044L13.315 15.6906C13.315 15.6906 13.3443 16.9062 13.5186 17.8124C13.6928 18.7206 13.9258 19.7293 13.9258 19.7293C13.9258 19.7293 11.6722 20.4898 11.6859 19.6702C11.6996 18.8507 12.0344 17.2549 12.0344 17.2549C12.0344 17.2549 12.2381 15.3537 12.2087 15.7044Z" fill="#FFA828"/>
<path d="M10.352 3.07194C10.352 3.07194 11.5836 2.93206 12.729 2.9498C13.8744 2.96753 15.0531 3.19409 15.0531 3.19409C15.0531 3.19409 14.9846 7.05156 14.7751 9.21671C14.5676 11.3819 13.753 13.0033 13.5357 13.4623C13.3262 13.9075 13.1735 14.1459 13.1735 14.1459L12.0692 14.0159L10.1602 10.1584L10.352 3.07194Z" fill="#FFA828"/>
<path d="M8.87809 3.64915C8.87809 3.64915 9.22466 3.47382 9.72786 3.28271C10.1841 3.10935 10.5952 3.05615 10.5952 3.05615C10.5952 3.05615 10.607 5.61335 10.6481 7.43767C10.6834 8.99208 11.2551 11.5394 11.5331 12.2211C11.8111 12.9027 12.3124 13.943 12.3124 13.943C12.3124 13.943 11.304 13.7972 10.6834 13.0052C10.3564 12.5875 8.82719 9.35655 8.77432 7.22687C8.72146 5.09718 8.929 3.59596 8.87809 3.64915Z" fill="#FFEFAB"/>
<path d="M8.30469 3.94473C8.26945 4.04915 7.99337 6.24976 8.42609 8.29079C8.8588 10.3318 9.49906 11.7286 9.92198 12.2822C10.2979 12.7728 10.5427 13.0053 10.6817 13.0053C10.8207 13.0053 10.1099 11.3129 9.77905 9.98508C9.45011 8.6592 9.27585 7.06932 9.24061 6.28522C9.20536 5.49915 9.17208 3.47388 9.17208 3.47388C9.17208 3.47388 8.79027 3.64922 8.70412 3.70044C8.61797 3.75363 8.30469 3.94473 8.30469 3.94473Z" fill="#FFFCFD"/>
<path d="M10.8027 19.5853C10.8027 19.5853 11.5487 18.3638 11.7054 17.4379C11.862 16.5119 11.9482 15.6924 11.9482 15.6924L12.4102 15.7121C12.4102 15.7121 12.3652 17.0537 12.3123 17.9619C12.2595 18.8702 12.1048 19.7607 12.1048 19.7607L10.8027 19.5853Z" fill="#FFEFAB"/>
<path d="M11.3765 14.9358C11.3765 14.9358 11.723 14.595 12.6766 14.595C13.6301 14.595 14.0393 14.9634 14.0393 14.9634L14.0648 16.1474C14.0648 16.1474 13.4304 15.9484 12.659 15.9386C12.0167 15.9307 11.3256 16.171 11.3256 16.171L11.3765 14.9358ZM7.21186 3.17621C7.37242 3.02648 8.91139 1.86412 12.5552 1.8326C16.4751 1.79713 17.9455 2.9398 18.0375 3.00284C18.1413 3.07179 18.2627 3.38701 18.2118 3.52689C18.1589 3.66677 18.0551 3.71799 17.7615 3.59584C17.4658 3.4737 16.0091 2.40393 12.5043 2.51425C9.13851 2.61867 7.71115 3.64903 7.56038 3.73572C7.43899 3.80467 7.21382 3.8224 7.11005 3.68253C7.00432 3.54462 7.10809 3.27471 7.21186 3.17621ZM18.2118 3.99774C17.7615 4.03321 18.0728 7.68184 17.1192 9.96717C16.0972 12.4121 14.7932 13.1095 14.846 13.2494C14.8989 13.3892 16.1755 13.0011 16.9802 11.8526C17.7262 10.7887 18.1765 9.84502 18.386 8.58809C18.5916 7.33116 18.713 3.95834 18.2118 3.99774ZM7.11592 4.41541C7.00236 4.4095 7.11788 6.22987 6.93383 7.02974C6.86334 7.33707 6.69104 7.40012 6.67342 7.46907C6.65579 7.53803 7.05131 9.88048 7.71506 10.9089C8.35728 11.9038 9.62409 13.143 9.83164 12.9341C10.0392 12.7253 8.91139 12.0259 8.14973 10.507C7.71115 9.63619 7.26473 8.3241 7.2471 6.82288C7.23536 5.82994 7.35871 4.4292 7.11592 4.41541Z" fill="#D1701C"/>
<path d="M17.3487 22.2845L17.3467 19.4692H8.36546C8.39288 19.4692 8.37134 21.7585 8.36742 22.2944H7.09082V24.3334H18.496V22.2944L17.3487 22.2845Z" fill="#865C50"/>
<path d="M11.2434 20.9487C11.0222 20.9389 10.7676 20.9842 10.7578 21.26C10.748 21.5358 10.748 22.3337 10.748 22.4854C10.748 22.6371 10.8714 22.7691 11.1808 22.779C11.4901 22.7888 14.3938 22.779 14.5974 22.779C14.8011 22.779 14.9068 22.6016 14.9146 22.4243C14.9244 22.247 14.9048 21.5004 14.9048 21.2974C14.9048 20.9605 14.6053 20.9605 14.4016 20.9605C14.1823 20.9566 11.2434 20.9487 11.2434 20.9487Z" fill="#FCC219"/>
</svg>
