<svg width="22" height="22" viewBox="0 0 22 22" fill="none" xmlns="http://www.w3.org/2000/svg">
<path d="M21.3276 14.3077L19.8718 12.4793C19.8516 12.4535 19.84 12.4209 19.84 12.3883V10.2692C19.84 9.93236 19.8487 9.58461 19.8574 9.27898C19.8994 7.60003 19.9399 6.01481 18.9506 4.40377C17.9511 2.77508 16.4012 1.61367 14.5862 1.13009C13.8793 0.941278 13.1131 0.846191 12.3077 0.846191C11.5023 0.846191 10.7375 0.941278 10.0292 1.13009C8.21564 1.61231 6.66572 2.77508 5.6648 4.40377C4.67546 6.01481 4.71457 7.60003 4.75803 9.27898C4.76527 9.58461 4.77541 9.93236 4.77541 10.2692V12.3883C4.77541 12.4209 4.76382 12.4535 4.74355 12.4793L3.28778 14.3063C2.95897 14.7193 2.90828 15.2613 3.15453 15.7217C3.40078 16.1822 3.89471 16.4675 4.44369 16.4675H7.09738C7.21182 19.0701 9.50481 21.1539 12.3077 21.1539C15.1106 21.1539 17.4036 19.0701 17.518 16.4675H20.1717C20.7207 16.4675 21.2146 16.1822 21.4609 15.7217C21.7071 15.2626 21.6564 14.7206 21.3276 14.3077ZM12.3077 19.7969C10.3044 19.7969 8.66033 18.3217 8.54735 16.4689H16.0666C15.955 18.3217 14.311 19.7969 12.3077 19.7969ZM6.20654 9.24774C6.16888 7.76439 6.13413 6.36391 6.92067 5.08296C7.73184 3.76262 8.97611 2.82398 10.4246 2.43821C11.0026 2.28471 11.637 2.20592 12.3077 2.20592C12.9784 2.20592 13.6114 2.28335 14.1908 2.43821C15.6393 2.82398 16.8835 3.76262 17.6947 5.08296C18.4813 6.36391 18.4465 7.76575 18.4088 9.24774C18.4001 9.57918 18.3915 9.92285 18.3915 10.2706V12.6151C18.3915 12.7931 18.4537 12.9697 18.5682 13.1123L19.9645 14.866C20.0167 14.9312 19.9964 14.9937 19.979 15.0263C19.9616 15.0589 19.9211 15.1105 19.8342 15.1105H4.78266C4.69575 15.1105 4.65374 15.0575 4.63781 15.0263C4.62187 14.995 4.60014 14.9325 4.65229 14.866L6.04866 13.1123C6.16164 12.9697 6.22537 12.7931 6.22537 12.6151V10.2706C6.22393 9.92285 6.21523 9.57918 6.20654 9.24774Z" fill="black"/>
</svg>
