<svg width="28" height="28" viewBox="0 0 28 28" fill="none" xmlns="http://www.w3.org/2000/svg">
<path d="M15.7503 7.58336L20.417 12.25M18.667 22.1667H25.667M22.167 18.6667V25.6667M4.66699 23.3334H9.33366L21.5837 11.0834C21.8901 10.7769 22.1331 10.4132 22.299 10.0128C22.4648 9.61246 22.5502 9.18337 22.5502 8.75003C22.5502 8.31669 22.4648 7.88759 22.299 7.48724C22.1331 7.08688 21.8901 6.72311 21.5837 6.41669C21.2772 6.11028 20.9135 5.86721 20.5131 5.70138C20.1128 5.53555 19.6837 5.4502 19.2503 5.4502C18.817 5.4502 18.3879 5.53555 17.9875 5.70138C17.5872 5.86721 17.2234 6.11028 16.917 6.41669L4.66699 18.6667V23.3334Z" stroke="white" stroke-width="2" stroke-linecap="round" stroke-linejoin="round"/>
</svg>
