<svg width="13" height="14" viewBox="0 0 13 14" fill="none" xmlns="http://www.w3.org/2000/svg">
<path d="M0.729496 5.2501C0.729465 4.38317 0.974793 3.52973 1.44358 2.76598C1.91236 2.00223 2.59 1.35194 3.416 0.873175C4.242 0.394414 5.19064 0.102085 6.17723 0.0222881C7.16381 -0.0575083 8.15762 0.0777124 9.06992 0.415876C9.98222 0.75404 10.7846 1.28462 11.4055 1.96024C12.0263 2.63587 12.4463 3.4355 12.6279 4.28774C12.8094 5.13999 12.747 6.01832 12.4461 6.8443C12.1452 7.67028 11.6152 8.41822 10.9035 9.02131C10.7005 9.19281 10.5445 9.3713 10.4505 9.56293L9.68849 11.1108C9.64983 11.1892 9.58576 11.2561 9.50419 11.303C9.42263 11.35 9.32713 11.375 9.22949 11.375C9.3621 11.375 9.48928 11.4211 9.58305 11.5032C9.67682 11.5852 9.72949 11.6965 9.72949 11.8125C9.72949 11.9286 9.67682 12.0398 9.58305 12.1219C9.48928 12.2039 9.3621 12.25 9.22949 12.25C9.3621 12.25 9.48928 12.2961 9.58305 12.3782C9.67682 12.4602 9.72949 12.5715 9.72949 12.6875C9.72949 12.8035 9.67682 12.9148 9.58305 12.9969C9.48928 13.0789 9.3621 13.125 9.22949 13.125L9.00549 13.5161C8.9225 13.6614 8.79492 13.7837 8.63702 13.8691C8.47912 13.9546 8.29716 13.9999 8.11149 14H5.34749C5.16183 13.9999 4.97986 13.9546 4.82197 13.8691C4.66407 13.7837 4.53649 13.6614 4.45349 13.5161L4.22949 13.125C4.09689 13.125 3.96971 13.0789 3.87594 12.9969C3.78217 12.9148 3.72949 12.8035 3.72949 12.6875C3.72949 12.5715 3.78217 12.4602 3.87594 12.3782C3.96971 12.2961 4.09689 12.25 4.22949 12.25C4.09689 12.25 3.96971 12.2039 3.87594 12.1219C3.78217 12.0398 3.72949 11.9286 3.72949 11.8125C3.72949 11.6965 3.78217 11.5852 3.87594 11.5032C3.96971 11.4211 4.09689 11.375 4.22949 11.375C4.13169 11.3752 4.03598 11.3502 3.95421 11.3033C3.87245 11.2563 3.80823 11.1894 3.76949 11.1108L3.00849 9.56205C2.89953 9.35753 2.74561 9.17379 2.5555 9.02131C1.97712 8.53234 1.51733 7.94637 1.20359 7.29841C0.889852 6.65045 0.72861 5.95381 0.729496 5.2501ZM6.72949 0.875156C5.73366 0.875008 4.76046 1.13505 3.93461 1.62197C3.10877 2.10888 2.4679 2.80048 2.09415 3.60813C1.7204 4.41578 1.6308 5.30269 1.83681 6.15519C2.04283 7.00768 2.53509 7.78693 3.25049 8.39307C3.51349 8.61531 3.76449 8.88656 3.92649 9.21643L4.55949 10.5H8.90149L9.53349 9.21643C9.69549 8.88656 9.94649 8.61531 10.2095 8.39307C10.925 7.78688 11.4172 7.00755 11.6232 6.15497C11.8292 5.30239 11.7395 4.41541 11.3656 3.60773C10.9918 2.80004 10.3508 2.10845 9.52476 1.6216C8.69876 1.13475 7.72542 0.874833 6.72949 0.875156Z" fill="#FE8440"/>
<path fill-rule="evenodd" clip-rule="evenodd" d="M6.71279 2.67212C6.89664 2.67212 7.04569 2.81123 7.04569 2.98283V6.08988C7.04569 6.26148 6.89664 6.40059 6.71279 6.40059C6.52893 6.40059 6.37988 6.26148 6.37988 6.08988V2.98283C6.37988 2.81123 6.52893 2.67212 6.71279 2.67212Z" fill="#FE8440"/>
<path fill-rule="evenodd" clip-rule="evenodd" d="M6.71309 7.56714C6.87877 7.56714 7.01309 7.70817 7.01309 7.88213L7.01309 8.40713C7.01309 8.5811 6.87877 8.72212 6.71309 8.72212C6.5474 8.72212 6.41309 8.5811 6.41309 8.40713L6.41309 7.88213C6.41309 7.70817 6.5474 7.56714 6.71309 7.56714Z" fill="#FE8440"/>
</svg>
