<svg width="26" height="27" viewBox="0 0 26 27" fill="none" xmlns="http://www.w3.org/2000/svg">
<path d="M7.66667 9.97059H7.68M13 9.97059H13.0133M18.3333 9.97059H18.3467M9 18.4412H3.66667C2.95942 18.4412 2.28115 18.1437 1.78105 17.6142C1.28095 17.0847 1 16.3665 1 15.6176V4.32353C1 3.57468 1.28095 2.85651 1.78105 2.32699C2.28115 1.79748 2.95942 1.5 3.66667 1.5H22.3333C23.0406 1.5 23.7189 1.79748 24.219 2.32699C24.719 2.85651 25 3.57468 25 4.32353V15.6176C25 16.3665 24.719 17.0847 24.219 17.6142C23.7189 18.1437 23.0406 18.4412 22.3333 18.4412H15.6667L9 25.5V18.4412Z" stroke="#666666" stroke-width="2" stroke-linecap="round" stroke-linejoin="round"/>
</svg>
