<svg width="27" height="27" viewBox="0 0 27 27" fill="none" xmlns="http://www.w3.org/2000/svg">
<path d="M26.9749 4.13347L26.5217 4.13177L26.9749 4.12494V4.10787C26.9622 3.37895 26.9495 2.62614 26.9495 1.8921V1.03857H0.0511988V1.8921C0.0511988 2.62614 0.0385147 3.37895 0.0258277 4.10787V4.13347C0.000453661 5.62374 -0.0267339 7.16521 0.053013 8.6845C0.109198 9.77872 0.618492 10.6698 1.52652 11.2656C2.50342 11.9057 3.67787 12.0406 4.48984 12.0406C4.7907 12.0406 5.09519 12.0218 5.39605 11.986V13.3021C5.39605 13.7203 5.6208 14.1044 5.99597 14.328L9.70964 16.5489C9.86914 16.6445 9.9652 16.8084 9.9652 16.9859V20.1576C8.26695 20.1576 6.88406 21.4601 6.88406 23.0597C6.88406 24.6592 8.26695 25.9617 9.9652 25.9617H17.2149C18.9132 25.9617 20.296 24.6592 20.296 23.0597C20.296 21.5284 19.031 20.2703 17.4324 20.1645V16.9808C17.4324 16.8152 17.5176 16.6582 17.6608 16.5609L21.1171 14.2171C21.4524 13.99 21.6536 13.6196 21.6536 13.2304V11.9928C21.9381 12.0252 22.2263 12.0423 22.5108 12.0423C23.3246 12.0423 24.4973 11.9074 25.4742 11.2673C26.3804 10.6715 26.8915 9.78043 26.9477 8.6862C27.0256 7.16521 27.0002 5.62374 26.9749 4.13347ZM25.137 8.60085C25.1081 9.16247 24.8797 9.57558 24.4374 9.86408C23.678 10.3625 22.5326 10.3984 21.6517 10.2669V2.74563H25.1389C25.1443 3.21166 25.1516 3.67769 25.1606 4.13347V4.15225C25.1878 5.61862 25.2132 7.13449 25.137 8.60085ZM17.2131 24.2546H9.96338C9.26378 24.2546 8.69468 23.7186 8.69468 23.0597C8.69468 22.4007 9.26378 21.8647 9.96338 21.8647H17.2131C17.9127 21.8647 18.4818 22.4007 18.4818 23.0597C18.4818 23.7186 17.9127 24.2546 17.2131 24.2546ZM7.20848 2.74563H19.8411V12.7917C19.8411 12.9078 19.7813 13.017 19.6816 13.0853L16.2253 15.4291C15.8465 15.6869 15.62 16.1017 15.62 16.5421V20.1576H11.7776V16.5165C11.7776 16.0436 11.5257 15.6117 11.1016 15.3591L7.38792 13.1382C7.27555 13.0716 7.20848 12.9573 7.20848 12.8327V2.74563ZM1.83644 4.15225V4.13347C1.84369 3.67769 1.85275 3.21166 1.85819 2.74563H5.39605V10.2584C4.50253 10.4018 3.33714 10.3728 2.56142 9.86408C2.121 9.57558 1.89081 9.16077 1.86182 8.60085C1.78569 7.13449 1.81107 5.61862 1.83644 4.15225Z" fill="#666666"/>
</svg>
