<svg width="22" height="27" viewBox="0 0 22 27" fill="none" xmlns="http://www.w3.org/2000/svg">
<path d="M11.0016 19.0749C5.48695 19.0749 1 14.9107 1 9.78894C1 4.66723 5.48695 0.5 11.0016 0.5C16.5163 0.5 21.0032 4.66723 21.0032 9.78894C21.0032 14.9107 16.5163 19.0749 11.0016 19.0749ZM11.0016 2.0055C6.37851 2.0055 2.62101 5.49525 2.62101 9.78894C2.62101 14.0826 6.37851 17.5724 11.0016 17.5724C15.6247 17.5724 19.379 14.0796 19.379 9.78894C19.379 5.49826 15.6215 2.0055 11.0016 2.0055Z" fill="#666666" stroke="#666666" stroke-width="0.5"/>
<path d="M20.1895 26.4999C19.7421 26.4999 19.379 26.1627 19.379 25.7471C19.379 21.2035 15.1709 19.1681 11.0016 19.1681C6.83239 19.1681 2.62101 21.2035 2.62101 25.7471C2.62101 26.1627 2.2579 26.4999 1.8105 26.4999C1.36311 26.4999 1 26.1627 1 25.7471C1 20.9115 5.0201 17.6626 11.0016 17.6626C16.9831 17.6626 21.0032 20.9115 21.0032 25.7471C21 26.1627 20.6369 26.4999 20.1895 26.4999Z" fill="#666666" stroke="#666666" stroke-width="0.5"/>
</svg>
